<!-- lily-pink.svg -->
<svg xmlns="http://www.w3.org/2000/svg" viewBox="-150 -80 280 180">
  <path d="M0,0 C-70,-10 -80,50 -40,70 C0,90 60,80 80,40 C100,0 70,-10 0,0 Z" fill="#2d5a27" opacity="0.92"/>
  <path d="M0,0 C-5,15 5,30 0,0 Z" fill="#1a3a16"/>
  <path d="M0,0 C20,30 30,55 40,70" fill="none" stroke="#1a3a16" stroke-width="0.8" opacity="0.5"/>
  <path d="M0,0 C-10,25 -15,50 -40,70" fill="none" stroke="#1a3a16" stroke-width="0.8" opacity="0.5"/>
  <path d="M0,0 C30,10 55,20 80,40" fill="none" stroke="#1a3a16" stroke-width="0.8" opacity="0.5"/>
  <path d="M0,0 C-25,5 -50,20 -70,35" fill="none" stroke="#1a3a16" stroke-width="0.8" opacity="0.5"/>
  <ellipse cx="0" cy="-32" rx="16" ry="32" fill="#f8b4c8" transform="rotate(-40,0,-32)"/>
  <ellipse cx="0" cy="-32" rx="16" ry="32" fill="#f8b4c8" transform="rotate(40,0,-32)"/>
  <ellipse cx="0" cy="-32" rx="16" ry="32" fill="#f5a0b8" transform="rotate(100,0,-32)"/>
  <ellipse cx="0" cy="-32" rx="16" ry="32" fill="#f5a0b8" transform="rotate(-100,0,-32)"/>
  <ellipse cx="0" cy="-32" rx="16" ry="32" fill="#f8b4c8" transform="rotate(160,0,-32)"/>
  <ellipse cx="0" cy="-32" rx="16" ry="32" fill="#f5a0b8" transform="rotate(-160,0,-32)"/>
  <ellipse cx="0" cy="-34" rx="14" ry="28" fill="#fce4ec" transform="rotate(-20,0,-34)"/>
  <ellipse cx="0" cy="-34" rx="14" ry="28" fill="#fce4ec" transform="rotate(20,0,-34)"/>
  <ellipse cx="0" cy="-34" rx="14" ry="28" fill="#fdd8e8" transform="rotate(80,0,-34)"/>
  <ellipse cx="0" cy="-34" rx="14" ry="28" fill="#fdd8e8" transform="rotate(-80,0,-34)"/>
  <ellipse cx="0" cy="-34" rx="14" ry="28" fill="#fce4ec" transform="rotate(140,0,-34)"/>
  <ellipse cx="0" cy="-34" rx="14" ry="28" fill="#fce4ec" transform="rotate(-140,0,-34)"/>
  <ellipse cx="0" cy="-36" rx="11" ry="22" fill="#fff0f5" transform="rotate(-10,0,-36)"/>
  <ellipse cx="0" cy="-36" rx="11" ry="22" fill="#fff0f5" transform="rotate(10,0,-36)"/>
  <ellipse cx="0" cy="-36" rx="11" ry="22" fill="#fce4ec" transform="rotate(60,0,-36)"/>
  <ellipse cx="0" cy="-36" rx="11" ry="22" fill="#fce4ec" transform="rotate(-60,0,-36)"/>
  <ellipse cx="0" cy="-36" rx="11" ry="22" fill="#fff0f5" transform="rotate(120,0,-36)"/>
  <ellipse cx="0" cy="-36" rx="11" ry="22" fill="#fff0f5" transform="rotate(-120,0,-36)"/>
  <circle cx="0" cy="-36" r="13" fill="#f9e04b"/>
  <circle cx="0" cy="-36" r="8" fill="#e8c020"/>
  <circle cx="-4" cy="-41" r="2" fill="#c8a000"/>
  <circle cx="4" cy="-41" r="2" fill="#c8a000"/>
  <circle cx="0" cy="-44" r="2" fill="#c8a000"/>
  <circle cx="-4" cy="-31" r="2" fill="#c8a000"/>
  <circle cx="4" cy="-31" r="2" fill="#c8a000"/>
  <circle cx="6" cy="-38" r="2" fill="#c8a000"/>
  <circle cx="-6" cy="-38" r="2" fill="#c8a000"/>
</svg>
