<!-- lily-white.svg -->
<svg xmlns="http://www.w3.org/2000/svg" viewBox="-100 -70 220 160">
  <path d="M0,0 C-50,-8 -58,36 -28,50 C0,64 44,58 58,28 C72,0 50,-8 0,0 Z" fill="#3a6b32" opacity="0.9"/>
  <path d="M0,0 C-3,10 3,22 0,0 Z" fill="#1a3a16"/>
  <path d="M0,0 C15,22 22,40 28,50" fill="none" stroke="#1a3a16" stroke-width="0.7" opacity="0.5"/>
  <path d="M0,0 C-8,18 -12,36 -28,50" fill="none" stroke="#1a3a16" stroke-width="0.7" opacity="0.5"/>
  <path d="M0,0 C22,8 40,15 58,28" fill="none" stroke="#1a3a16" stroke-width="0.7" opacity="0.5"/>
  <ellipse cx="0" cy="-28" rx="14" ry="28" fill="#e0e0e0" transform="rotate(-40,0,-28)"/>
  <ellipse cx="0" cy="-28" rx="14" ry="28" fill="#e0e0e0" transform="rotate(40,0,-28)"/>
  <ellipse cx="0" cy="-28" rx="14" ry="28" fill="#d8d8d8" transform="rotate(100,0,-28)"/>
  <ellipse cx="0" cy="-28" rx="14" ry="28" fill="#d8d8d8" transform="rotate(-100,0,-28)"/>
  <ellipse cx="0" cy="-28" rx="14" ry="28" fill="#e0e0e0" transform="rotate(160,0,-28)"/>
  <ellipse cx="0" cy="-28" rx="14" ry="28" fill="#d8d8d8" transform="rotate(-160,0,-28)"/>
  <ellipse cx="0" cy="-30" rx="12" ry="24" fill="#f0f0f0" transform="rotate(-20,0,-30)"/>
  <ellipse cx="0" cy="-30" rx="12" ry="24" fill="#f0f0f0" transform="rotate(20,0,-30)"/>
  <ellipse cx="0" cy="-30" rx="12" ry="24" fill="#ebebeb" transform="rotate(80,0,-30)"/>
  <ellipse cx="0" cy="-30" rx="12" ry="24" fill="#ebebeb" transform="rotate(-80,0,-30)"/>
  <ellipse cx="0" cy="-30" rx="12" ry="24" fill="#f0f0f0" transform="rotate(140,0,-30)"/>
  <ellipse cx="0" cy="-30" rx="12" ry="24" fill="#f0f0f0" transform="rotate(-140,0,-30)"/>
  <ellipse cx="0" cy="-32" rx="10" ry="20" fill="#ffffff" transform="rotate(-10,0,-32)"/>
  <ellipse cx="0" cy="-32" rx="10" ry="20" fill="#ffffff" transform="rotate(10,0,-32)"/>
  <ellipse cx="0" cy="-32" rx="10" ry="20" fill="#f8f8f8" transform="rotate(60,0,-32)"/>
  <ellipse cx="0" cy="-32" rx="10" ry="20" fill="#f8f8f8" transform="rotate(-60,0,-32)"/>
  <ellipse cx="0" cy="-32" rx="10" ry="20" fill="#ffffff" transform="rotate(120,0,-32)"/>
  <ellipse cx="0" cy="-32" rx="10" ry="20" fill="#ffffff" transform="rotate(-120,0,-32)"/>
  <circle cx="0" cy="-32" r="11" fill="#f9e04b"/>
  <circle cx="0" cy="-32" r="7" fill="#e8c020"/>
  <circle cx="-3" cy="-36" r="1.8" fill="#c8a000"/>
  <circle cx="3" cy="-36" r="1.8" fill="#c8a000"/>
  <circle cx="0" cy="-39" r="1.8" fill="#c8a000"/>
  <circle cx="-3" cy="-28" r="1.8" fill="#c8a000"/>
  <circle cx="3" cy="-28" r="1.8" fill="#c8a000"/>
  <circle cx="5" cy="-33" r="1.8" fill="#c8a000"/>
  <circle cx="-5" cy="-33" r="1.8" fill="#c8a000"/>
</svg>
